<svg width="96" height="32" viewBox="0 0 96 32" fill="none" xmlns="http://www.w3.org/2000/svg">
<g clip-path="url(#clip0_4296_12971)">
<path d="M88.3571 0.000104H7.65111C7.35693 0.000104 7.06627 0.000104 6.77287 0.001704C6.52726 0.003304 6.28361 0.007952 6.03564 0.011864C5.49695 0.0181854 4.95952 0.065445 4.42802 0.153232C3.89728 0.24293 3.38316 0.412037 2.90305 0.654832C2.42353 0.899681 1.98538 1.21784 1.6045 1.59776C1.22161 1.97661 0.902444 2.41452 0.659273 2.89463C0.415431 3.37379 0.24635 3.88725 0.15787 4.41729C0.0685483 4.94665 0.0204837 5.48212 0.0141071 6.01889C0.00666231 6.26417 0.00587611 6.51026 0.00195312 6.75557V25.247C0.00587611 25.4954 0.00666231 25.736 0.0141071 25.9845C0.0204857 26.5212 0.0685503 27.0567 0.15787 27.586C0.246105 28.1164 0.415196 28.6301 0.659273 29.1095C0.902334 29.588 1.22154 30.0242 1.6045 30.4009C1.98394 30.7825 2.42237 31.1009 2.90305 31.3439C3.38315 31.5873 3.89722 31.7574 4.42802 31.8485C4.95961 31.9356 5.49698 31.9829 6.03564 31.9899C6.28361 31.9954 6.52726 31.9985 6.77287 31.9985C7.06626 32.0001 7.35694 32.0001 7.65111 32.0001H88.3571C88.6454 32.0001 88.9384 32.0001 89.2267 31.9985C89.4712 31.9985 89.7219 31.9954 89.9663 31.9899C90.504 31.9832 91.0403 31.936 91.5708 31.8485C92.1033 31.7568 92.6192 31.5867 93.1017 31.3439C93.5819 31.1007 94.0199 30.7824 94.3991 30.4009C94.781 30.0227 95.1009 29.5869 95.347 29.1095C95.5892 28.6298 95.7567 28.1161 95.8437 27.586C95.9331 27.0566 95.9829 26.5213 95.9926 25.9845C95.9957 25.736 95.9957 25.4954 95.9957 25.247C96.002 24.9563 96.002 24.6673 96.002 24.3719V7.62901C96.002 7.33604 96.002 7.04541 95.9957 6.75557C95.9957 6.51026 95.9957 6.26417 95.9926 6.01886C95.9829 5.48204 95.9331 4.94669 95.8437 4.41726C95.7565 3.88753 95.589 3.37411 95.347 2.8946C94.8518 1.93226 94.0665 1.14892 93.1017 0.65476C92.6192 0.412558 92.1033 0.243496 91.5708 0.15316C91.0404 0.0649862 90.504 0.0177102 89.9663 0.011752C89.7219 0.007848 89.4712 0.00316 89.2267 0.0016C88.9384 0 88.6454 0.000104 88.3571 0.000104Z" fill="#A6A6A6"/>
<path d="M6.77856 31.3002C6.53413 31.3002 6.29561 31.2971 6.0531 31.2916C5.55072 31.2851 5.04951 31.2415 4.55359 31.1612C4.09117 31.0817 3.6432 30.934 3.22448 30.7228C2.80959 30.5134 2.43118 30.2388 2.10374 29.9096C1.77156 29.5842 1.49501 29.2068 1.28504 28.7924C1.07276 28.3752 0.925845 27.9281 0.84942 27.4666C0.766889 26.9707 0.722236 26.4692 0.715846 25.9666C0.71076 25.7979 0.704102 25.2361 0.704102 25.2361V6.75567C0.704102 6.75567 0.711193 6.20254 0.715887 6.04004C0.722004 5.53818 0.766398 5.03752 0.848682 4.54238C0.925248 4.0796 1.07227 3.63119 1.28467 3.2127C1.49387 2.79855 1.76889 2.42088 2.09906 2.09434C2.42887 1.76469 2.80849 1.48868 3.22408 1.27636C3.64185 1.06587 4.08897 0.919181 4.55045 0.841211C5.048 0.760064 5.55095 0.716192 6.05507 0.709963L6.77896 0.700195H89.2246L89.9571 0.710355C90.4567 0.716275 90.955 0.759755 91.448 0.840427C91.9142 0.919375 92.366 1.06709 92.7885 1.27871C93.6211 1.70658 94.2985 2.38353 94.7259 3.21465C94.9349 3.63026 95.0797 4.075 95.1553 4.53379C95.2385 5.03299 95.2851 5.53759 95.2947 6.04356C95.297 6.27012 95.297 6.51348 95.297 6.75567C95.3034 7.05567 95.3034 7.34121 95.3034 7.6291V24.372C95.3034 24.6627 95.3034 24.9463 95.297 25.2322C95.297 25.4924 95.297 25.7307 95.2939 25.976C95.2846 26.4729 95.2387 26.9685 95.1568 27.4588C95.0819 27.9236 94.9358 28.3742 94.7236 28.7948C94.5121 29.2047 94.2372 29.5788 93.9088 29.9033C93.5811 30.2343 93.202 30.5106 92.7862 30.7213C92.3648 30.9341 91.9137 31.0824 91.448 31.1612C90.9521 31.2419 90.4509 31.2855 89.9485 31.2916C89.7135 31.2971 89.4674 31.3002 89.2285 31.3002L88.3589 31.3018L6.77856 31.3002Z" fill="black"/>
<path d="M19.8691 16.2404C19.8778 15.5726 20.0556 14.9179 20.3862 14.3372C20.7167 13.7564 21.1892 13.2685 21.7597 12.9187C21.3973 12.4026 20.9192 11.9778 20.3634 11.6782C19.8075 11.3785 19.1893 11.2123 18.5578 11.1926C17.2106 11.0516 15.9046 11.9964 15.2181 11.9964C14.5183 11.9964 13.4614 11.2066 12.3232 11.2299C11.587 11.2536 10.8695 11.4671 10.2407 11.8496C9.61179 12.232 9.093 12.7704 8.73482 13.4122C7.18328 16.091 8.34059 20.0278 9.82684 22.1931C10.5704 23.2534 11.4395 24.4377 12.5766 24.3957C13.6894 24.3497 14.105 23.6881 15.4482 23.6881C16.7789 23.6881 17.1688 24.3957 18.3291 24.369C19.5231 24.3497 20.2754 23.304 20.9929 22.2337C21.5272 21.4782 21.9383 20.6432 22.2111 19.7597C21.5174 19.4671 20.9254 18.9774 20.5089 18.3515C20.0924 17.7257 19.8699 16.9915 19.8691 16.2404Z" fill="white"/>
<path d="M17.6758 9.76857C18.3269 8.9892 18.6476 7.98746 18.5699 6.97607C17.5753 7.08025 16.6565 7.5543 15.9967 8.30376C15.6741 8.6699 15.427 9.09584 15.2695 9.55726C15.1121 10.0187 15.0474 10.5065 15.0791 10.9929C15.5766 10.998 16.0688 10.8905 16.5186 10.6784C16.9684 10.4663 17.3641 10.1552 17.6758 9.76857Z" fill="white"/>
<path d="M33.9368 21.7116H30.1395L29.2275 24.3968H27.6191L31.2159 14.4624H32.887L36.4838 24.3968H34.848L33.9368 21.7116ZM30.5328 20.4726H33.5428L32.0589 16.1148H32.0174L30.5328 20.4726Z" fill="white"/>
<path d="M44.253 20.7757C44.253 23.0264 43.0449 24.4725 41.2218 24.4725C40.76 24.4966 40.3007 24.3905 39.8966 24.1664C39.4924 23.9423 39.1597 23.6092 38.9365 23.2053H38.902V26.7928H37.4111V17.1538H38.8543V18.3585H38.8817C39.1151 17.9565 39.4534 17.6251 39.8607 17.3997C40.2679 17.1742 40.7288 17.063 41.1944 17.078C43.0378 17.078 44.253 18.5311 44.253 20.7757ZM42.7205 20.7757C42.7205 19.3093 41.9606 18.3452 40.8011 18.3452C39.662 18.3452 38.8958 19.3296 38.8958 20.7757C38.8958 22.235 39.662 23.2124 40.8011 23.2124C41.9606 23.2124 42.7205 22.2553 42.7205 20.7757Z" fill="white"/>
<path d="M52.2432 20.7757C52.2432 23.0264 51.0351 24.4725 49.2121 24.4725C48.7502 24.4966 48.291 24.3905 47.8868 24.1664C47.4826 23.9423 47.1499 23.6092 46.9268 23.2053H46.8923V26.7928H45.4014V17.1538H46.8445V18.3585H46.8719C47.1053 17.9565 47.4436 17.6251 47.8509 17.3997C48.2581 17.1742 48.7191 17.063 49.1846 17.078C51.0281 17.078 52.2432 18.5311 52.2432 20.7757ZM50.7108 20.7757C50.7108 19.3093 49.9508 18.3452 48.7913 18.3452C47.6522 18.3452 46.886 19.3296 46.886 20.7757C46.886 22.235 47.6522 23.2124 48.7913 23.2124C49.9508 23.2124 50.7108 22.2553 50.7108 20.7757Z" fill="white"/>
<path d="M57.5281 21.6287C57.6386 22.6139 58.5983 23.2607 59.9098 23.2607C61.1664 23.2607 62.0705 22.6138 62.0705 21.7255C62.0705 20.9544 61.5252 20.4927 60.2341 20.1763L58.943 19.8662C57.1137 19.4255 56.2644 18.5724 56.2644 17.188C56.2644 15.474 57.7624 14.2966 59.8894 14.2966C61.9945 14.2966 63.4376 15.474 63.4862 17.188H61.9812C61.8911 16.1966 61.0693 15.5982 59.8683 15.5982C58.6672 15.5982 57.8454 16.2037 57.8454 17.0849C57.8454 17.7873 58.3703 18.2005 59.6544 18.5169L60.752 18.7857C62.796 19.2677 63.6452 20.0865 63.6452 21.5396C63.6452 23.3982 62.1606 24.5622 59.7993 24.5622C57.59 24.5622 56.0983 23.4255 56.002 21.6286L57.5281 21.6287Z" fill="white"/>
<path d="M66.8636 15.4397V17.1538H68.2448V18.3311H66.8636V22.3241C66.8636 22.9444 67.1401 23.2334 67.7473 23.2334C67.9113 23.2306 68.075 23.2191 68.2377 23.199V24.3694C67.9648 24.4202 67.6873 24.4433 67.4096 24.4381C65.9391 24.4381 65.3656 23.8873 65.3656 22.4826V18.3311H64.3096V17.1538H65.3656V15.4397H66.8636Z" fill="white"/>
<path d="M69.0449 20.7756C69.0449 18.4967 70.3909 17.0647 72.4897 17.0647C74.5956 17.0647 75.9353 18.4967 75.9353 20.7756C75.9353 23.0608 74.6027 24.4866 72.4897 24.4866C70.3775 24.4866 69.0449 23.0608 69.0449 20.7756ZM74.4162 20.7756C74.4162 19.2124 73.6978 18.2897 72.4897 18.2897C71.2816 18.2897 70.564 19.2194 70.564 20.7756C70.564 22.3452 71.2816 23.2608 72.4897 23.2608C73.6978 23.2608 74.4162 22.3452 74.4162 20.7756Z" fill="white"/>
<path d="M77.166 17.1537H78.588V18.3865H78.6225C78.7187 18.0015 78.9449 17.6612 79.263 17.4229C79.5812 17.1846 79.9719 17.0628 80.3695 17.0779C80.5414 17.0773 80.7127 17.0959 80.8804 17.1334V18.524C80.6634 18.4579 80.4372 18.4276 80.2105 18.4342C79.9939 18.4254 79.778 18.4635 79.5775 18.5458C79.3771 18.6281 79.1969 18.7527 79.0493 18.911C78.9017 19.0693 78.7902 19.2576 78.7225 19.4629C78.6548 19.6683 78.6324 19.8858 78.6569 20.1006V24.3967H77.166L77.166 17.1537Z" fill="white"/>
<path d="M87.7521 22.2694C87.5516 23.5842 86.2675 24.4866 84.6246 24.4866C82.5117 24.4866 81.2002 23.0748 81.2002 20.81C81.2002 18.5381 82.5187 17.0647 84.5619 17.0647C86.5715 17.0647 87.8352 18.4413 87.8352 20.6374V21.1467H82.7052V21.2366C82.6815 21.5031 82.715 21.7717 82.8034 22.0243C82.8918 22.277 83.0331 22.508 83.2179 22.7021C83.4027 22.8961 83.6267 23.0487 83.8752 23.1498C84.1237 23.2508 84.3909 23.298 84.6591 23.2881C85.0114 23.321 85.365 23.2397 85.6672 23.0561C85.9694 22.8726 86.2041 22.5966 86.3365 22.2694L87.7521 22.2694ZM82.7122 20.1077H86.3435C86.3569 19.868 86.3204 19.6281 86.2365 19.4032C86.1525 19.1782 86.0228 18.973 85.8555 18.8004C85.6882 18.6277 85.487 18.4915 85.2644 18.4001C85.0418 18.3087 84.8026 18.2642 84.5619 18.2694C84.3192 18.2679 84.0785 18.3145 83.8538 18.4062C83.6292 18.498 83.425 18.6333 83.253 18.8042C83.081 18.9751 82.9447 19.1783 82.8519 19.402C82.7591 19.6257 82.7116 19.8656 82.7122 20.1077Z" fill="white"/>
<path d="M29.4752 9.00266H30.1153C30.2254 9.01635 30.3373 9.00712 30.4437 8.97556C30.5501 8.94401 30.6489 8.89081 30.7337 8.81932C30.8184 8.74783 30.8875 8.6596 30.9364 8.56019C30.9853 8.46078 31.013 8.35235 31.0178 8.24173C31.0178 7.80149 30.6856 7.51712 30.1223 7.51712C30.0094 7.50139 29.8945 7.50837 29.7844 7.53766C29.6743 7.56695 29.5711 7.61794 29.4811 7.68764C29.391 7.75733 29.3159 7.8443 29.2601 7.94343C29.2043 8.04256 29.1691 8.15182 29.1563 8.26478H28.4536C28.4657 8.05974 28.5199 7.85937 28.6131 7.67617C28.7062 7.49296 28.8361 7.33082 28.9948 7.19986C29.1534 7.0689 29.3375 6.97191 29.5353 6.91493C29.7332 6.85795 29.9408 6.84221 30.145 6.86868C31.0875 6.86868 31.7511 7.39485 31.7511 8.15227C31.7533 8.40601 31.6682 8.65284 31.5099 8.85154C31.3517 9.05024 31.1298 9.18879 30.8815 9.24407V9.30032C31.1759 9.31334 31.4532 9.44208 31.6527 9.65838C31.8522 9.87468 31.9577 10.161 31.9462 10.4546C31.9244 10.6657 31.8606 10.8704 31.7584 11.0566C31.6563 11.2428 31.5179 11.4068 31.3514 11.5389C31.1849 11.6711 30.9936 11.7688 30.7887 11.8263C30.5839 11.8838 30.3696 11.8999 30.1584 11.8738C29.9467 11.9025 29.7314 11.8885 29.5253 11.8325C29.3192 11.7766 29.1266 11.6798 28.9588 11.548C28.791 11.4162 28.6515 11.252 28.5487 11.0653C28.4459 10.8786 28.3818 10.6732 28.3604 10.4613H29.0741C29.1172 10.9179 29.5379 11.2125 30.1584 11.2125C30.7788 11.2125 31.1839 10.8816 31.1839 10.4152C31.1839 9.94215 30.8023 9.65074 30.1356 9.65074H29.4752V9.00266Z" fill="white"/>
<path d="M32.7598 10.7395C32.7598 10.0911 33.2447 9.71728 34.1034 9.66415L35.0819 9.60791V9.29697C35.0819 8.9165 34.8304 8.70166 34.3423 8.70166C33.9443 8.70166 33.6693 8.84736 33.5894 9.10205H32.8992C32.9721 8.4833 33.5565 8.08643 34.376 8.08643C35.2817 8.08643 35.7925 8.53603 35.7925 9.29697V11.7583H35.1054V11.2521H35.049C34.9345 11.4336 34.7737 11.5817 34.5831 11.6811C34.3925 11.7804 34.1788 11.8276 33.9639 11.8177C33.8123 11.8334 33.659 11.8172 33.514 11.7703C33.369 11.7233 33.2354 11.6466 33.122 11.545C33.0085 11.4434 32.9177 11.3193 32.8553 11.1805C32.7929 11.0418 32.7604 10.8916 32.7598 10.7395ZM35.0819 10.4317V10.1306L34.1997 10.1868C33.7022 10.22 33.4766 10.3888 33.4766 10.7063C33.4766 11.0306 33.7586 11.2192 34.1465 11.2192C34.2601 11.2307 34.3749 11.2193 34.484 11.1856C34.5931 11.1519 34.6943 11.0967 34.7816 11.0232C34.8689 10.9498 34.9404 10.8595 34.992 10.7579C35.0436 10.6563 35.0742 10.5454 35.0819 10.4317Z" fill="white"/>
<path d="M37.6807 8.7542V11.7581H36.9678V8.15576H39.3463V8.75416L37.6807 8.7542Z" fill="white"/>
<path d="M43.6665 9.95543C43.6665 11.1 43.0859 11.8175 42.174 11.8175C41.9502 11.8328 41.7266 11.7839 41.5296 11.6767C41.3327 11.5695 41.1706 11.4085 41.0623 11.2125H41.0059V12.9558H40.293V8.15583H40.9793V8.75116H41.0325C41.1427 8.54832 41.307 8.37979 41.5072 8.26418C41.7074 8.14858 41.9357 8.0904 42.167 8.09608C43.0859 8.09606 43.6665 8.81051 43.6665 9.95543ZM42.9332 9.95543C42.9332 9.1945 42.572 8.73473 41.968 8.73473C41.3679 8.73473 40.9926 9.20426 40.9926 9.95856C40.9926 10.7093 41.3679 11.1793 41.9648 11.1793C42.572 11.1793 42.9332 10.7195 42.9332 9.95543Z" fill="white"/>
<path d="M44.6182 13.0483V12.4362C44.6954 12.446 44.7731 12.4504 44.8509 12.4495C45.0028 12.4607 45.1535 12.4156 45.2741 12.3228C45.3947 12.2301 45.4766 12.0961 45.5043 11.9468L45.5576 11.7714L44.25 8.15576H45.0264L45.9321 11.0171H45.9885L46.891 8.15576H47.647L46.3003 11.9069C45.9916 12.7835 45.6501 13.0648 44.9136 13.0648C44.8541 13.0647 44.6848 13.0581 44.6182 13.0483Z" fill="white"/>
<path d="M48.2031 10.7359H48.9129C48.9827 11.0535 49.2812 11.2191 49.6987 11.2191C50.1735 11.2191 50.4649 11.0105 50.4649 10.6863C50.4649 10.339 50.2033 10.1734 49.6987 10.1734H49.1581V9.62104H49.6893C50.1202 9.62104 50.3396 9.45581 50.3396 9.15464C50.3396 8.89019 50.1273 8.68824 49.6893 8.68824C49.2905 8.68824 48.9991 8.85699 48.9529 9.14137H48.2658C48.3172 8.8146 48.4951 8.52099 48.7613 8.32368C49.0275 8.12637 49.3607 8.04113 49.6893 8.08629C50.548 8.08629 51.0392 8.4734 51.0392 9.08199C51.0432 9.25147 50.9887 9.41718 50.8849 9.55142C50.7811 9.68566 50.6342 9.78029 50.4688 9.8195V9.87575C50.6658 9.90107 50.8465 9.9976 50.9767 10.147C51.107 10.2964 51.1777 10.4883 51.1755 10.6863C51.1755 11.3711 50.5911 11.8242 49.6987 11.8242C48.9098 11.8242 48.2689 11.4636 48.2031 10.7359Z" fill="white"/>
<path d="M52.1992 11.7581V8.15576H52.9059V10.6335H52.9623L54.6271 8.15577H55.3338V11.7581H54.6271V9.26711H54.5738L52.9059 11.7581L52.1992 11.7581Z" fill="white"/>
<path d="M59.2252 8.75416H58.0876V11.7581H57.3739V8.75416H56.2363V8.15576H59.2252V8.75416Z" fill="white"/>
<path d="M63.0686 10.7855C62.9715 11.1147 62.7614 11.3994 62.4752 11.5899C62.1889 11.7804 61.8446 11.8645 61.5025 11.8276C61.2645 11.8339 61.028 11.7885 60.8094 11.6944C60.5908 11.6004 60.3953 11.4601 60.2365 11.2832C60.0777 11.1063 59.9595 10.897 59.8899 10.6699C59.8204 10.4429 59.8012 10.2035 59.8338 9.96827C59.8021 9.73237 59.8216 9.49242 59.891 9.26468C59.9603 9.03694 60.078 8.82673 60.2359 8.64827C60.3939 8.46981 60.5884 8.32728 60.8064 8.23031C61.0244 8.13334 61.2607 8.08421 61.4994 8.08624C62.5045 8.08624 63.1117 8.77104 63.1117 9.90224V10.1503H60.5608V10.1902C60.5495 10.3224 60.5661 10.4555 60.6095 10.581C60.6528 10.7064 60.722 10.8214 60.8126 10.9186C60.9032 11.0158 61.0132 11.093 61.1356 11.1453C61.2579 11.1976 61.3898 11.2238 61.5229 11.2222C61.6933 11.2425 61.8659 11.2118 62.0188 11.134C62.1717 11.0563 62.298 10.9349 62.3815 10.7854L63.0686 10.7855ZM60.5608 9.62453H62.3846C62.3936 9.50369 62.3772 9.38231 62.3364 9.26817C62.2956 9.15404 62.2313 9.04969 62.1476 8.96181C62.0639 8.87393 61.9628 8.80447 61.8506 8.75789C61.7384 8.71131 61.6177 8.68864 61.4962 8.69133C61.3729 8.68966 61.2505 8.71265 61.1362 8.75896C61.0219 8.80527 60.9181 8.87396 60.8309 8.96095C60.7437 9.04795 60.6749 9.1515 60.6285 9.26547C60.5821 9.37945 60.5591 9.50154 60.5608 9.62453Z" fill="white"/>
<path d="M66.0918 8.15576H67.7206C68.4272 8.15576 68.8417 8.51279 68.8417 9.07176C68.8428 9.24913 68.7828 9.42149 68.6717 9.56001C68.5606 9.69852 68.4051 9.79479 68.2314 9.8327V9.88895C68.4424 9.90224 68.6401 9.99583 68.7839 10.1504C68.9277 10.3049 69.0064 10.5086 69.0039 10.7194C69.0039 11.3479 68.5299 11.7581 67.737 11.7581H66.0918V8.15576ZM66.7985 8.70147V9.63427H67.5051C67.936 9.63427 68.1421 9.46903 68.1421 9.16435C68.1421 8.88349 67.9627 8.70146 67.5843 8.70146L66.7985 8.70147ZM66.7985 10.1569V11.2124H67.6438C68.0653 11.2124 68.291 11.0269 68.291 10.6862C68.291 10.3257 68.0356 10.1569 67.5545 10.1569L66.7985 10.1569Z" fill="white"/>
</g>
<defs>
<clipPath id="clip0_4296_12971">
<rect width="95.9987" height="32" fill="white"/>
</clipPath>
</defs>
</svg>
