<svg width="16" height="16" viewBox="0 0 16 16" fill="none" xmlns="http://www.w3.org/2000/svg">
<path fill-rule="evenodd" clip-rule="evenodd" d="M2.41009 2.41058C2.73553 2.08514 3.26317 2.08514 3.5886 2.41058L7.99935 6.82133L12.4101 2.41058C12.7355 2.08514 13.2632 2.08514 13.5886 2.41058C13.914 2.73602 13.914 3.26366 13.5886 3.58909L9.17786 7.99984L13.5886 12.4106C13.914 12.736 13.914 13.2637 13.5886 13.5891C13.2632 13.9145 12.7355 13.9145 12.4101 13.5891L7.99935 9.17835L3.5886 13.5891C3.26317 13.9145 2.73553 13.9145 2.41009 13.5891C2.08466 13.2637 2.08466 12.736 2.41009 12.4106L6.82084 7.99984L2.41009 3.58909C2.08466 3.26366 2.08466 2.73602 2.41009 2.41058Z" fill="#979EA7"/>
</svg>
