<svg width="10" height="10" viewBox="0 0 10 10" fill="none" xmlns="http://www.w3.org/2000/svg">
<path d="M9.28575 2.14275C9.68022 1.74828 9.68022 1.10872 9.28575 0.71425C8.89128 0.319781 8.25172 0.319781 7.85725 0.71425L5 3.5715L2.14275 0.714251C1.74828 0.319781 1.10872 0.319781 0.71425 0.71425C0.319781 1.10872 0.319781 1.74828 0.71425 2.14275L3.5715 5L0.714251 7.85725C0.319781 8.25172 0.319781 8.89128 0.71425 9.28575C1.10872 9.68022 1.74828 9.68022 2.14275 9.28575L5 6.4285L7.85725 9.28575C8.25172 9.68022 8.89128 9.68022 9.28575 9.28575C9.68022 8.89128 9.68022 8.25172 9.28575 7.85725L6.4285 5L9.28575 2.14275Z" fill="white" fill-opacity="0.7"/>
</svg>
