<svg width="17" height="16" viewBox="0 0 17 16" fill="none" xmlns="http://www.w3.org/2000/svg">
<path d="M3.16667 6H9.16667C9.90305 6 10.5 6.59695 10.5 7.33333V13.3333C10.5 14.0697 9.90305 14.6667 9.16667 14.6667H3.16667C2.43029 14.6667 1.83333 14.0697 1.83333 13.3333V7.33333C1.83333 6.59695 2.43029 6 3.16667 6Z" stroke="#FFFCFC" stroke-width="1.33333" stroke-linecap="round" stroke-linejoin="round"/>
<path d="M13.168 10.0002H13.8346C14.1883 10.0002 14.5274 9.85969 14.7774 9.60964C15.0275 9.35959 15.168 9.02045 15.168 8.66683V2.66683C15.168 2.31321 15.0275 1.97407 14.7774 1.72402C14.5274 1.47397 14.1883 1.3335 13.8346 1.3335H7.83464C7.48101 1.3335 7.14187 1.47397 6.89183 1.72402C6.64178 1.97407 6.5013 2.31321 6.5013 2.66683V3.3335" stroke="#FFFCFC" stroke-width="1.33333" stroke-linecap="round" stroke-linejoin="round"/>
</svg>
