<svg width="13" height="13" viewBox="0 0 13 13" fill="none" xmlns="http://www.w3.org/2000/svg">
<path opacity="0.5" d="M10.0462 4.82807L4.07415 10.8011C3.7538 11.1212 3.35251 11.3483 2.91315 11.4581L0.62215 12.0311C0.538274 12.0522 0.450351 12.0512 0.366972 12.0282C0.283592 12.0052 0.207609 11.9609 0.146447 11.8998C0.0852841 11.8386 0.0410343 11.7626 0.0180213 11.6793C-0.0049918 11.5959 -0.00598098 11.5079 0.0151502 11.4241L0.58815 9.13407C0.698066 8.69424 0.925514 8.29258 1.24615 7.97207L7.21715 1.99907L10.0462 4.82807ZM11.4612 0.586073C11.8361 0.961128 12.0467 1.46974 12.0467 2.00007C12.0467 2.5304 11.8361 3.03902 11.4612 3.41407L10.7532 4.12007L7.92415 1.29207L8.63215 0.586073C8.81788 0.40027 9.03839 0.252879 9.2811 0.152318C9.5238 0.0517584 9.78394 0 10.0467 0C10.3094 0 10.5695 0.0517584 10.8122 0.152318C11.0549 0.252879 11.2754 0.40027 11.4612 0.586073Z" fill="white"/>
</svg>
