<svg width="16" height="16" viewBox="0 0 16 16" fill="none" xmlns="http://www.w3.org/2000/svg">
<path d="M10 0C11.1 0 12 0.9 12 2C12 2.9 11.4 3.7 10.5 3.9V4C10.9 4 11.2 4.2 11.5 4.5L12.8 5.8C12.9 5.9 13.1 6 13.3 6H15V0H10Z" fill="#303D4F"/>
<path d="M11.8004 14.5L8.00039 10V12.5C8.00039 13.3 7.30039 14 6.50039 14H3.00039C2.40039 14 2.00039 13.6 2.00039 13C2.00039 12.4 2.40039 12 3.00039 12H5.50039C5.80039 12 6.00039 11.8 6.00039 11.5V9.5C6.00039 8.8 6.10039 8.2 6.40039 7.5L7.10039 6H6.30039C5.80039 6 5.40039 6.2 5.10039 6.6L4.60039 7.3C4.40039 7.7 3.90039 7.8 3.40039 7.6C3.00039 7.3 2.80039 6.7 3.20039 6.3L3.80039 5.5C4.50039 4.5 5.70039 4 6.90039 4H8.90039L9.00039 3.7C8.40039 3.4 8.00039 2.7 8.00039 2C8.00039 0.9 8.90039 0 10.0004 0H3.00039V4.9L2.40039 5.7C2.10039 6.1 1.90039 6.6 2.00039 7.2C2.10039 7.7 2.40039 8.2 2.90039 8.5V11C1.80039 11 0.900391 11.9 0.900391 13C0.900391 14.1 1.80039 15 2.90039 15V16H14.5004C13.4004 16 12.4004 15.4 11.8004 14.5Z" fill="#303D4F"/>
<path d="M11.4005 7.3L10.7005 6.5L10.1005 8C9.90047 8.5 9.80047 8.9 10.1005 9.3L15.0005 15.4V8H12.9005C12.3005 8 11.8005 7.8 11.4005 7.3Z" fill="#303D4F"/>
</svg>
