<svg width="20" height="20" viewBox="0 0 20 20" fill="none" xmlns="http://www.w3.org/2000/svg">
<mask id="mask0" mask-type="alpha" maskUnits="userSpaceOnUse" x="1" y="3" width="19" height="13">
<path fill-rule="evenodd" clip-rule="evenodd" d="M1 9.5C2.38284 5.71312 6.11408 3 10.5 3C14.8859 3 18.6172 5.71313 20 9.5C18.6172 13.2869 14.8859 16 10.5 16C6.11408 16 2.38284 13.2869 1 9.5Z" fill="#979EA7"/>
</mask>
<g mask="url(#mask0)">
<path d="M1.11375 9.5L0.137164 9.12404L0 9.5L0.137164 9.87596L1.11375 9.5ZM19.8862 9.5L20.8628 9.87596L21 9.5L20.8628 9.12404L19.8862 9.5ZM2.09033 9.87596C3.29813 6.56516 6.58436 4.14286 10.4999 4.14286V2C5.74879 2 1.66193 4.94431 0.137164 9.12404L2.09033 9.87596ZM10.4999 4.14286C14.4156 4.14286 17.7018 6.56517 18.9096 9.87596L20.8628 9.12404C19.338 4.94432 15.2511 2 10.4999 2V4.14286ZM18.9096 9.12404C17.7018 12.4349 14.4156 14.8571 10.4999 14.8571V17C15.2511 17 19.338 14.0557 20.8628 9.87596L18.9096 9.12404ZM10.4999 14.8571C6.58436 14.8571 3.29813 12.4349 2.09033 9.12404L0.137164 9.87596C1.66193 14.0557 5.74879 17 10.4999 17V14.8571Z" fill="#979EA7"/>
<path d="M10.5 13C12.433 13 14 11.433 14 9.5C14 7.567 12.433 6 10.5 6C8.567 6 7 7.567 7 9.5C7 11.433 8.567 13 10.5 13Z" stroke="#979EA7"/>
<path d="M2 18L17 3" stroke="#979EA7"/>
</g>
</svg>
