<svg width="18" height="15" viewBox="0 0 18 15" fill="none" xmlns="http://www.w3.org/2000/svg">
<g opacity="0.5">
<mask id="path-1-inside-1" fill="white">
<path d="M12.788 0.666656C11.1971 0.666656 9.79554 1.49305 9.00008 2.79166C8.20463 1.49305 6.80311 0.666656 5.2122 0.666656C2.7122 0.666656 0.666748 2.79166 0.666748 5.38888C0.666748 9.07854 5.84004 12.8171 8.0345 14.2369C8.62689 14.6202 9.37411 14.6215 9.96758 14.2399C12.1631 12.828 17.3334 9.10846 17.3334 5.38888C17.3334 2.79166 15.288 0.666656 12.788 0.666656Z"/>
</mask>
<path d="M9.00008 2.79166L8.14734 3.31399C8.32911 3.61074 8.65209 3.79166 9.00008 3.79166C9.34808 3.79166 9.67105 3.61074 9.85282 3.31399L9.00008 2.79166ZM12.788 -0.333344C10.8392 -0.333344 9.11934 0.682491 8.14734 2.26932L9.85282 3.31399C10.4717 2.3036 11.5549 1.66666 12.788 1.66666V-0.333344ZM9.85282 2.26932C8.88082 0.682491 7.161 -0.333344 5.2122 -0.333344V1.66666C6.44522 1.66666 7.52843 2.3036 8.14734 3.31399L9.85282 2.26932ZM5.2122 -0.333344C2.1243 -0.333344 -0.333252 2.27567 -0.333252 5.38888H1.66675C1.66675 3.30764 3.3001 1.66666 5.2122 1.66666V-0.333344ZM-0.333252 5.38888C-0.333252 7.6613 1.22525 9.77005 2.81932 11.3699C4.45952 13.0161 6.36884 14.3503 7.49127 15.0765L8.57773 13.3973C7.5057 12.7037 5.73114 11.4587 4.23609 9.95825C2.69489 8.41146 1.66675 6.80612 1.66675 5.38888H-0.333252ZM10.5084 15.081C11.6318 14.3586 13.5415 13.0308 15.1819 11.3859C16.7776 9.78587 18.3334 7.67495 18.3334 5.38888H16.3334C16.3334 6.8224 15.3041 8.43106 13.7658 9.97365C12.2721 11.4714 10.4989 12.7093 9.42671 13.3988L10.5084 15.081ZM18.3334 5.38888C18.3334 2.27567 15.8759 -0.333344 12.788 -0.333344V1.66666C14.7001 1.66666 16.3334 3.30764 16.3334 5.38888H18.3334ZM7.49127 15.0765C8.41314 15.673 9.58442 15.6752 10.5084 15.081L9.42671 13.3988C9.16379 13.5678 8.84064 13.5674 8.57773 13.3973L7.49127 15.0765Z" fill="white" mask="url(#path-1-inside-1)"/>
</g>
</svg>
