<svg width="20" height="17" viewBox="0 0 20 17" fill="none" xmlns="http://www.w3.org/2000/svg">
<mask id="path-1-inside-1" fill="white">
<path d="M14.5455 0C12.6364 0 10.9545 0.991666 10 2.55C9.04545 0.991666 7.36364 0 5.45455 0C2.45455 0 0 2.55 0 5.66667C0 10.2051 6.52261 14.8051 9.03216 16.407C9.62691 16.7866 10.3738 16.788 10.9696 16.4101C13.4805 14.8176 20 10.2421 20 5.66667C20 2.55 17.5455 0 14.5455 0Z"/>
</mask>
<path d="M10 2.55L9.14726 3.07234C9.32903 3.36909 9.652 3.55 10 3.55C10.348 3.55 10.671 3.36909 10.8527 3.07234L10 2.55ZM14.5455 -1C12.2785 -1 10.2784 0.181112 9.14726 2.02766L10.8527 3.07234C11.6307 1.80222 12.9943 1 14.5455 1V-1ZM10.8527 2.02766C9.72165 0.181112 7.72152 -1 5.45455 -1V1C7.00575 1 8.36926 1.80222 9.14726 3.07234L10.8527 2.02766ZM5.45455 -1C1.86664 -1 -1 2.03402 -1 5.66667H1C1 3.06598 3.04245 1 5.45455 1V-1ZM-1 5.66667C-1 8.37157 0.905881 10.9102 2.87282 12.85C4.88964 14.839 7.21467 16.4332 8.49411 17.2499L9.57021 15.5641C8.3401 14.7789 6.14905 13.2721 4.27718 11.426C2.35542 9.53076 1 7.50017 1 5.66667H-1ZM11.5052 17.2546C12.7857 16.4424 15.1112 14.8564 17.1282 12.8694C19.0968 10.93 21 8.38885 21 5.66667H19C19 7.51995 17.6435 9.55424 15.7246 11.4446C13.8541 13.2873 11.6644 14.7853 10.434 15.5656L11.5052 17.2546ZM21 5.66667C21 2.03402 18.1334 -1 14.5455 -1V1C16.9576 1 19 3.06598 19 5.66667H21ZM8.49411 17.2499C9.41581 17.8382 10.5813 17.8406 11.5052 17.2546L10.434 15.5656C10.1663 15.7354 9.838 15.735 9.57021 15.5641L8.49411 17.2499Z" fill="white" fill-opacity="0.4" mask="url(#path-1-inside-1)"/>
</svg>
