<svg width="17" height="16" viewBox="0 0 17 16" fill="none" xmlns="http://www.w3.org/2000/svg">
<path d="M7.16797 8.66697C7.45427 9.04972 7.81954 9.36642 8.239 9.5956C8.65846 9.82477 9.12231 9.96105 9.59907 9.99519C10.0758 10.0293 10.5544 9.96055 11.0022 9.79349C11.45 9.62643 11.8567 9.36502 12.1946 9.02697L14.1946 7.02697C14.8018 6.3983 15.1378 5.55629 15.1302 4.6823C15.1226 3.80831 14.7721 2.97227 14.154 2.35424C13.536 1.73621 12.7 1.38565 11.826 1.37806C10.952 1.37046 10.11 1.70644 9.4813 2.31364L8.33464 3.45364" stroke="#FFFCFC" stroke-width="1.33333" stroke-linecap="round" stroke-linejoin="round"/>
<path d="M9.83347 7.33332C9.54716 6.95057 9.18189 6.63387 8.76243 6.40469C8.34297 6.17552 7.87913 6.03924 7.40237 6.0051C6.9256 5.97095 6.44707 6.03974 5.99924 6.2068C5.5514 6.37386 5.14472 6.63527 4.8068 6.97332L2.8068 8.97332C2.19961 9.60199 1.86363 10.444 1.87122 11.318C1.87881 12.192 2.22938 13.028 2.8474 13.646C3.46543 14.2641 4.30147 14.6146 5.17546 14.6222C6.04945 14.6298 6.89146 14.2938 7.52013 13.6867L8.66013 12.5467" stroke="#FFFCFC" stroke-width="1.33333" stroke-linecap="round" stroke-linejoin="round"/>
</svg>
