<svg width="12" height="15" viewBox="0 0 12 15" fill="none" xmlns="http://www.w3.org/2000/svg">
<path d="M11.547 6.43559H10.0165V4.88354C10.017 4.87691 10.017 4.87047 10.017 4.86476C10.017 2.45816 8.17929 0.5 5.91983 0.5C3.66106 0.5 1.82319 2.45816 1.82319 4.86476V6.43559H0.45286C0.393383 6.43557 0.334485 6.44803 0.279531 6.47227C0.224577 6.49651 0.174645 6.53205 0.132589 6.57686C0.0905324 6.62167 0.057176 6.67487 0.0344257 6.73342C0.0116755 6.79197 -2.26724e-05 6.85472 3.29889e-08 6.91809V14.0175C-2.26724e-05 14.0809 0.0116755 14.1436 0.0344257 14.2022C0.057176 14.2607 0.0905324 14.3139 0.132589 14.3587C0.174645 14.4035 0.224577 14.4391 0.279531 14.4633C0.334485 14.4876 0.393383 14.5 0.45286 14.5H11.5471C11.6066 14.5 11.6655 14.4876 11.7205 14.4633C11.7754 14.4391 11.8254 14.4035 11.8674 14.3587C11.9095 14.3139 11.9428 14.2607 11.9656 14.2022C11.9883 14.1436 12 14.0809 12 14.0175V6.91809C12 6.85471 11.9883 6.79196 11.9655 6.73341C11.9427 6.67486 11.9094 6.62166 11.8673 6.57685C11.8252 6.53204 11.7753 6.49651 11.7203 6.47227C11.6654 6.44803 11.6065 6.43557 11.547 6.43559ZM4.2359 4.86476C4.2359 3.87528 4.99113 3.07154 5.91983 3.07154C6.84265 3.07154 7.59494 3.86681 7.60393 4.84782L7.60341 4.85353H7.60393V6.43559H4.2359V4.86476Z" fill="black"/>
</svg>
