<svg width="187" height="188" viewBox="0 0 187 188" fill="none" xmlns="http://www.w3.org/2000/svg">
<g clip-path="url(#clip0_4287_27453)" filter="url(#filter0_d_4287_27453)">
<path d="M93.4103 43C66.441 43 44.348 63.641 42.25 89.8704L69.7658 101.163C72.1684 99.527 75.0219 98.6523 77.944 98.6558C78.217 98.6558 78.4869 98.6633 78.7527 98.6778L90.9908 81.07V80.8235C90.9908 70.2285 99.6751 61.6065 110.35 61.6065C121.025 61.6065 129.71 70.2285 129.71 80.8235C129.71 91.4181 121.025 100.044 110.35 100.044C110.202 100.044 110.058 100.04 109.911 100.037L92.457 112.393C92.4682 112.623 92.4754 112.851 92.4754 113.077C92.4754 121.034 85.956 127.505 77.944 127.505C70.9109 127.505 65.0265 122.52 63.6968 115.922L44.0157 107.844C50.1107 129.234 69.9095 144.916 93.4103 144.916C121.764 144.916 144.748 122.098 144.748 93.9579C144.748 65.8141 121.764 43 93.4103 43ZM74.4214 120.32L68.1158 117.733C69.2317 120.044 71.1671 121.977 73.7344 123.038C79.2825 125.334 85.6801 122.722 87.9927 117.21C89.1123 114.56 89.119 111.581 88.0112 108.926C86.9029 106.252 84.8085 104.166 82.1232 103.054C79.4526 101.954 76.5935 101.993 74.0815 102.935L80.5977 105.609C84.6904 107.302 86.6258 111.967 84.9194 116.029C83.2166 120.091 78.5141 122.013 74.4214 120.32V120.32ZM123.251 80.8235C123.251 73.7642 117.462 68.0164 110.352 68.0164C103.237 68.0164 97.4489 73.7642 97.4489 80.8235C97.4489 87.8832 103.237 93.6274 110.352 93.6274C117.462 93.6274 123.251 87.8832 123.251 80.8235V80.8235ZM100.681 80.8018C100.681 75.49 105.021 71.1847 110.37 71.1847C115.723 71.1847 120.063 75.49 120.063 80.8018C120.063 86.1137 115.723 90.4194 110.37 90.4194C105.021 90.4194 100.681 86.1137 100.681 80.8022L100.681 80.8018Z" fill="white"/>
</g>
<defs>
<filter id="filter0_d_4287_27453" x="0.0431023" y="0.793102" width="186.91" height="186.414" filterUnits="userSpaceOnUse" color-interpolation-filters="sRGB">
<feFlood flood-opacity="0" result="BackgroundImageFix"/>
<feColorMatrix in="SourceAlpha" type="matrix" values="0 0 0 0 0 0 0 0 0 0 0 0 0 0 0 0 0 0 127 0" result="hardAlpha"/>
<feOffset/>
<feGaussianBlur stdDeviation="21.1034"/>
<feColorMatrix type="matrix" values="0 0 0 0 1 0 0 0 0 1 0 0 0 0 1 0 0 0 0.25 0"/>
<feBlend mode="normal" in2="BackgroundImageFix" result="effect1_dropShadow_4287_27453"/>
<feBlend mode="normal" in="SourceGraphic" in2="effect1_dropShadow_4287_27453" result="shape"/>
</filter>
<clipPath id="clip0_4287_27453">
<rect width="102.498" height="102" fill="white" transform="translate(42.25 43)"/>
</clipPath>
</defs>
</svg>
