<svg width="15" height="15" viewBox="0 0 15 15" fill="none" xmlns="http://www.w3.org/2000/svg">
<path d="M7.5 0C3.36443 0 0 3.36443 0 7.5C0 11.6356 3.36443 15 7.5 15C11.6356 15 15 11.6356 15 7.5C15 3.36443 11.6356 0 7.5 0ZM7.5 13.5246C4.17787 13.5246 1.47541 10.8221 1.47541 7.5C1.47541 4.17787 4.17787 1.47541 7.5 1.47541C10.8221 1.47541 13.5246 4.17787 13.5246 7.5C13.5246 10.8221 10.8221 13.5246 7.5 13.5246ZM6.51639 3.03246H8.48361V9.34426H6.51639V3.03246ZM6.51639 10.4105H8.48361V11.9675H6.51639V10.4105Z" fill="#F44336"/>
</svg>
