<svg width="22" height="26" viewBox="0 0 22 26" fill="none" xmlns="http://www.w3.org/2000/svg">
<path d="M10.4404 15.1973C10.4495 14.6549 10.5111 14.2266 10.625 13.9121C10.7389 13.5977 10.9714 13.249 11.3223 12.8662L12.2178 11.9434C12.6006 11.5104 12.792 11.0456 12.792 10.5488C12.792 10.0703 12.6667 9.69661 12.416 9.42773C12.1654 9.1543 11.8008 9.01758 11.3223 9.01758C10.8574 9.01758 10.4837 9.14062 10.2012 9.38672C9.91862 9.63281 9.77734 9.96322 9.77734 10.3779H8.5127C8.52181 9.63965 8.78385 9.04492 9.29883 8.59375C9.81836 8.13802 10.4928 7.91016 11.3223 7.91016C12.1836 7.91016 12.8535 8.14258 13.332 8.60742C13.8151 9.06771 14.0566 9.70117 14.0566 10.5078C14.0566 11.3053 13.6875 12.0915 12.9492 12.8662L12.2041 13.6045C11.8714 13.9736 11.7051 14.5046 11.7051 15.1973H10.4404ZM10.3857 17.3643C10.3857 17.1592 10.4473 16.9883 10.5703 16.8516C10.6979 16.7103 10.8848 16.6396 11.1309 16.6396C11.377 16.6396 11.5638 16.7103 11.6914 16.8516C11.819 16.9883 11.8828 17.1592 11.8828 17.3643C11.8828 17.5693 11.819 17.7402 11.6914 17.877C11.5638 18.0091 11.377 18.0752 11.1309 18.0752C10.8848 18.0752 10.6979 18.0091 10.5703 17.877C10.4473 17.7402 10.3857 17.5693 10.3857 17.3643Z" fill="#2C88F4"/>
<circle cx="11" cy="13" r="10.5" stroke="#2C88F4"/>
</svg>
