<svg width="16" height="16" viewBox="0 0 16 16" fill="none" xmlns="http://www.w3.org/2000/svg">
<path d="M6.50137 1C8.019 1 9.39365 1.61585 10.3889 2.6111C11.3842 3.60635 12 4.981 12 6.50137C12 8.019 11.3842 9.39365 10.3889 10.3889C9.39365 11.3842 8.019 12 6.50137 12C4.981 12 3.60635 11.3842 2.6111 10.3889C1.61585 9.39365 1 8.019 1 6.50137C1 4.981 1.61585 3.60635 2.6111 2.6111C3.60635 1.61585 4.981 1 6.50137 1ZM9.36341 3.63934C8.62934 2.90527 7.6176 2.45439 6.50137 2.45439C5.3824 2.45439 4.37066 2.90527 3.63934 3.63934C2.90527 4.37066 2.45439 5.3824 2.45439 6.50137C2.45439 7.6176 2.90527 8.62934 3.63934 9.36341C4.37066 10.0947 5.3824 10.5484 6.50137 10.5484C7.6176 10.5484 8.62934 10.0947 9.36341 9.36341C10.0947 8.62934 10.5484 7.6176 10.5484 6.50137C10.5484 5.3824 10.0947 4.37066 9.36341 3.63934Z" fill="#979EA7"/>
<path d="M9.20107 10.1718C8.9331 9.90371 9.23215 9.76809 9.50012 9.50003C9.77069 9.23198 9.90611 8.93299 10.1741 9.20104L14.7972 13.8256C15.0677 14.0937 15.0677 14.5283 14.7972 14.799C14.5292 15.067 14.0947 15.067 13.8268 14.799L9.20107 10.1718Z" fill="#979EA7"/>
</svg>
