<svg width="32" height="32" viewBox="0 0 32 32" fill="none" xmlns="http://www.w3.org/2000/svg">
<rect x="0.5" y="0.5" width="31" height="31" rx="15.5" stroke="#2C88F4"/>
<path d="M19.4452 12.741C20.776 12.741 21.8548 11.6467 21.8548 10.2968C21.8548 8.94696 20.776 7.85266 19.4452 7.85266C18.1145 7.85266 17.0356 8.94696 17.0356 10.2968C17.0356 11.6467 18.1145 12.741 19.4452 12.741Z" stroke="#2C88F4" stroke-linecap="round" stroke-linejoin="round"/>
<path d="M9.80704 18.4442C11.1378 18.4442 12.2166 17.3499 12.2166 16C12.2166 14.6501 11.1378 13.5558 9.80704 13.5558C8.47627 13.5558 7.39746 14.6501 7.39746 16C7.39746 17.3499 8.47627 18.4442 9.80704 18.4442Z" stroke="#2C88F4" stroke-linecap="round" stroke-linejoin="round"/>
<path d="M19.4452 24.1471C20.776 24.1471 21.8548 23.0528 21.8548 21.7029C21.8548 20.353 20.776 19.2587 19.4452 19.2587C18.1145 19.2587 17.0356 20.353 17.0356 21.7029C17.0356 23.0528 18.1145 24.1471 19.4452 24.1471Z" stroke="#2C88F4" stroke-linecap="round" stroke-linejoin="round"/>
<path d="M11.8872 17.2301L17.373 20.4728" stroke="#2C88F4" stroke-linecap="round" stroke-linejoin="round"/>
<path d="M17.365 11.5271L11.8872 14.7697" stroke="#2C88F4" stroke-linecap="round" stroke-linejoin="round"/>
</svg>
