<svg width="43" height="42" viewBox="0 0 43 42" fill="none" xmlns="http://www.w3.org/2000/svg">
<path d="M21.6074 41.3438C32.843 41.3438 41.9512 32.2355 41.9512 21C41.9512 9.76446 32.843 0.65625 21.6074 0.65625C10.3719 0.65625 1.26367 9.76446 1.26367 21C1.26367 32.2355 10.3719 41.3438 21.6074 41.3438Z" fill="#00ACED"/>
<path d="M32.1074 14.5031C31.3199 14.8313 30.5324 15.0938 29.6137 15.1594C30.5324 14.6344 31.1887 13.7812 31.5168 12.7969C30.6637 13.3219 29.7449 13.65 28.7605 13.8469C27.973 12.9938 26.8574 12.4688 25.6762 12.4688C23.3137 12.4688 21.3449 14.3719 21.3449 16.8C21.3449 17.1281 21.4105 17.4563 21.4762 17.7844C17.8668 17.5875 14.7168 15.8813 12.6168 13.2563C12.223 13.9125 12.0262 14.6344 12.0262 15.4219C12.0262 16.9313 12.8137 18.2438 13.9293 19.0312C13.2074 19.0312 12.5512 18.8344 11.9605 18.5063V18.5719C11.9605 20.6719 13.4699 22.3781 15.4387 22.7719C15.0449 22.8375 14.7168 22.9031 14.323 22.9031C14.0605 22.9031 13.798 22.9031 13.5355 22.8375C14.0605 24.5437 15.7012 25.7906 17.5387 25.8563C16.0949 27.0375 14.1918 27.6938 12.1574 27.6938C11.8293 27.6938 11.4355 27.6937 11.1074 27.6281C13.0105 28.875 15.3074 29.5312 17.7355 29.5312C25.6762 29.5312 30.0074 22.9687 30.0074 17.2594C30.0074 17.0625 30.0074 16.8656 30.0074 16.7344C30.7949 16.0781 31.5168 15.3563 32.1074 14.5031Z" fill="white"/>
</svg>
