<svg width="43" height="42" viewBox="0 0 43 42" fill="none" xmlns="http://www.w3.org/2000/svg">
<path d="M21.6074 41.3438C32.843 41.3438 41.9512 32.2355 41.9512 21C41.9512 9.76446 32.843 0.65625 21.6074 0.65625C10.3719 0.65625 1.26367 9.76446 1.26367 21C1.26367 32.2355 10.3719 41.3438 21.6074 41.3438Z" fill="#37AEE2"/>
<path d="M30.7299 10.1348C30.277 10.1164 29.8264 10.227 29.4427 10.4056C28.8849 10.62 23.7731 12.5974 18.599 14.6002C15.9947 15.6062 13.3926 16.6122 11.3899 17.3831C9.38821 18.1552 7.88092 18.7291 7.80141 18.7567C7.27133 18.9411 6.55456 19.1739 5.94611 19.8907C5.79285 20.0693 5.63844 20.2986 5.56007 20.6143C5.48171 20.9301 5.51628 21.3311 5.66955 21.6457C5.97492 22.276 6.49233 22.5365 7.10308 22.7704C9.13123 23.4203 11.2285 24.0403 12.9651 24.6234C13.6058 26.882 14.2212 29.1487 14.8296 31.4108C15.0301 31.8648 15.4669 32.0331 15.9175 32.0377L15.9152 32.0607C15.9152 32.0607 16.2689 32.0953 16.6135 32.0123C16.9592 31.9316 17.3936 31.7311 17.7889 31.3612C18.2233 30.9533 19.4022 29.794 20.0706 29.1395L25.1064 32.857L25.1467 32.88C25.1467 32.88 25.7044 33.2718 26.5203 33.3272C26.9282 33.3548 27.4652 33.2764 27.9262 32.9388C28.3906 32.6 28.6983 32.055 28.8423 31.4327C29.2733 29.5543 32.13 15.96 32.6174 13.7094L32.6036 13.7624C32.9447 12.4948 32.8191 11.3333 32.032 10.6453C31.6379 10.3031 31.1839 10.1532 30.7299 10.1337L30.7299 10.1348ZM30.5939 12.2943C30.625 12.3231 30.6227 12.3231 30.5962 12.3254C30.5881 12.3231 30.6884 12.4614 30.4925 13.1955L30.4844 13.2231L30.4786 13.2485C29.9808 15.5497 27.0953 29.2662 26.7104 30.9441C26.6574 31.1699 26.6355 31.1538 26.6482 31.14C26.533 31.1227 26.3198 31.0317 26.3025 31.0247L17.6829 24.658C20.6352 21.8151 23.6544 19.2419 26.7024 16.4993C27.2417 16.2285 27.1518 15.393 26.5065 15.3792C25.822 15.5405 25.2446 16.0326 24.6166 16.3472C21.0074 18.4882 17.3199 20.3712 13.7499 22.5768C11.9176 21.9396 10.0888 21.4106 8.39948 20.8863C9.86528 20.2986 11.0303 19.8653 12.1769 19.4228C14.1797 18.6507 16.7817 17.6482 19.3861 16.6399C24.597 14.6255 29.8379 12.5951 30.2931 12.4199L30.33 12.405L30.3646 12.39C30.4913 12.3323 30.5639 12.3266 30.5973 12.3243C30.5973 12.3243 30.5858 12.2863 30.595 12.2943L30.5939 12.2943ZM16.867 26.7737L18.289 27.8246C17.676 28.4239 17.0963 28.9885 16.678 29.3919L16.867 26.7737Z" fill="white"/>
</svg>
