<svg width="43" height="42" viewBox="0 0 43 42" fill="none" xmlns="http://www.w3.org/2000/svg">
<path d="M21.6074 41.3438C32.843 41.3438 41.9512 32.2355 41.9512 21C41.9512 9.76446 32.843 0.65625 21.6074 0.65625C10.3719 0.65625 1.26367 9.76446 1.26367 21C1.26367 32.2355 10.3719 41.3438 21.6074 41.3438Z" fill="#45668E"/>
<path d="M30.1047 29.4267H29.9734C28.5494 29.1905 27.5716 28.1667 26.7447 27.2152C26.2722 26.6836 25.5503 25.4696 24.6972 25.5942C23.4831 25.7911 24.0869 27.9042 23.575 28.8099C23.1681 29.5383 21.4159 29.4071 20.215 29.2758C16.4153 28.8689 14.4728 26.8017 12.7666 24.5902C10.9942 22.2465 9.47214 19.7237 8.22531 17.063C7.67674 16.1682 7.33796 15.1608 7.23438 14.1164C7.83156 13.5849 8.85531 13.7817 9.8725 13.7817C10.7322 13.7817 12.0775 13.5914 12.7075 13.913C13.0816 14.0836 13.4556 15.0942 13.7378 15.7505C14.3455 17.0864 15.0725 18.3647 15.91 19.5699C16.2775 20.1014 16.8353 21.1121 17.4916 20.9742C18.1478 20.8364 18.1872 19.2483 18.2134 18.2311C18.2134 17.0696 18.2134 15.6061 17.8853 15.0155C17.5572 14.4249 17.0191 14.438 16.4612 14.0902C16.9403 13.1124 18.2463 13.0205 19.8212 13.0205C21.1337 13.0205 22.9975 12.8696 23.5094 13.7555C24.0212 14.6414 23.6734 16.2821 23.6406 17.5027C23.6012 18.8742 23.3716 20.2917 24.2969 20.9217C25.0122 20.843 25.3994 20.1342 25.8128 19.6092C26.6921 18.4156 27.4236 17.1199 27.9916 15.7505C28.2803 15.0942 28.5888 14.0114 29.1138 13.7817C29.9078 13.4733 31.1809 13.7161 32.3425 13.7161C33.3006 13.7161 35.0003 13.4471 35.3088 14.1164C35.5647 14.6742 34.8166 16.0852 34.5869 16.4592C33.7554 17.7362 32.8527 18.9653 31.8831 20.1408C31.5025 20.6527 30.715 21.4533 30.7609 22.2867C30.7937 22.9036 31.4172 23.3827 31.8831 23.8289C32.8183 24.6673 33.679 25.5851 34.4556 26.5721C34.7641 26.9789 35.44 27.8846 35.3744 28.3833C35.1709 30.0633 31.3778 29.033 30.1047 29.4267Z" fill="white"/>
</svg>
