<svg width="12" height="12" viewBox="0 0 12 12" fill="none" xmlns="http://www.w3.org/2000/svg">
<path d="M6.05215 0.984287C6.21477 0.619449 6.73262 0.619449 6.89525 0.984287L8.15037 3.80002C8.21744 3.9505 8.35964 4.05381 8.52347 4.0711L11.5892 4.39468C11.9865 4.4366 12.1465 4.92911 11.8498 5.19652L9.55971 7.26031C9.43733 7.3706 9.38301 7.53776 9.4172 7.69893L10.0568 10.7146C10.1397 11.1054 9.72076 11.4098 9.37475 11.2102L6.70429 9.66997C6.56158 9.58765 6.38582 9.58765 6.24311 9.66997L3.57265 11.2102C3.22663 11.4098 2.80768 11.1054 2.89056 10.7146L3.5302 7.69893C3.56438 7.53776 3.51007 7.3706 3.38769 7.26031L1.09761 5.19652C0.800888 4.92911 0.960912 4.4366 1.35815 4.39468L4.42392 4.0711C4.58776 4.05381 4.72996 3.9505 4.79703 3.80002L6.05215 0.984287Z" fill="#767D84"/>
<path fill-rule="evenodd" clip-rule="evenodd" d="M6.47357 0.710449C6.30345 0.710449 6.13333 0.801659 6.05202 0.984078L4.7969 3.79981C4.72983 3.95029 4.58763 4.0536 4.4238 4.07089L1.35802 4.39447C0.960783 4.43639 0.800759 4.9289 1.09749 5.19631L3.38756 7.2601C3.50994 7.37039 3.56426 7.53756 3.53007 7.69872L2.89043 10.7144C2.80756 11.1052 3.2265 11.4096 3.57252 11.21L6.24298 9.66976C6.31433 9.6286 6.39395 9.60802 6.47357 9.60802V0.710449Z" fill="#FFCF54"/>
</svg>
