<svg width="12" height="12" viewBox="0 0 12 12" fill="none" xmlns="http://www.w3.org/2000/svg">
<path d="M5.57851 0.984287C5.74114 0.619449 6.25899 0.619449 6.42162 0.984287L7.67673 3.80002C7.74381 3.9505 7.886 4.05381 8.04984 4.0711L11.1156 4.39468C11.5129 4.4366 11.6729 4.92911 11.3762 5.19652L9.08608 7.26031C8.96369 7.3706 8.90938 7.53776 8.94356 7.69893L9.5832 10.7146C9.66608 11.1054 9.24713 11.4098 8.90112 11.2102L6.23066 9.66997C6.08795 9.58765 5.91218 9.58765 5.76947 9.66997L3.09901 11.2102C2.753 11.4098 2.33405 11.1054 2.41693 10.7146L3.05657 7.69893C3.09075 7.53776 3.03644 7.3706 2.91405 7.26031L0.623982 5.19652C0.327255 4.92911 0.487279 4.4366 0.884515 4.39468L3.95029 4.0711C4.11413 4.05381 4.25632 3.9505 4.3234 3.80002L5.57851 0.984287Z" fill="#FFCF54"/>
</svg>
