<svg width="18" height="18" viewBox="0 0 18 18" fill="none" xmlns="http://www.w3.org/2000/svg">
<path d="M8.98446 0C4.24828 0 0.368437 3.64253 0 8.27124L4.83216 10.264C5.2541 9.97535 5.7552 9.82099 6.26836 9.82161C6.31631 9.82161 6.3637 9.82293 6.41039 9.8255L8.55956 6.71824V6.67473C8.55956 4.80503 10.0846 3.28351 11.9594 3.28351C13.8341 3.28351 15.3591 4.80503 15.3591 6.67473C15.3591 8.54437 13.8341 10.0665 11.9594 10.0665C11.9334 10.0665 11.9081 10.0659 11.8822 10.0653L8.81705 12.2459C8.81902 12.2864 8.82028 12.3267 8.82028 12.3665C8.82028 13.7706 7.67538 14.9126 6.26836 14.9126C5.03325 14.9126 3.99987 14.0329 3.76636 12.8685L0.310078 11.4431C1.38045 15.2178 4.8574 17.9851 8.98446 17.9851C13.9639 17.9851 18 13.9585 18 8.99256C18 4.02602 13.9639 0 8.98446 0ZM5.64975 13.6447L4.5424 13.1882C4.73836 13.596 5.07825 13.9371 5.52909 14.1244C6.50341 14.5295 7.62694 14.0686 8.03306 13.0959C8.22968 12.6282 8.23084 12.1025 8.0363 11.634C7.84167 11.1621 7.47387 10.794 7.00228 10.5978C6.5333 10.4036 6.0312 10.4106 5.59005 10.5767L6.73439 11.0486C7.45312 11.3474 7.79302 12.1706 7.49334 12.8875C7.1943 13.6043 6.36848 13.9435 5.64975 13.6447V13.6447ZM14.2249 6.67473C14.2249 5.42898 13.2083 4.41466 11.9596 4.41466C10.7102 4.41466 9.6937 5.42898 9.6937 6.67473C9.6937 7.92056 10.7102 8.93425 11.9596 8.93425C13.2083 8.93425 14.2249 7.92056 14.2249 6.67473V6.67473ZM10.2613 6.67091C10.2613 5.73352 11.0235 4.97377 11.9629 4.97377C12.9028 4.97377 13.665 5.73352 13.665 6.67091C13.665 7.6083 12.9028 8.36812 11.9628 8.36812C11.0235 8.36812 10.2613 7.6083 10.2613 6.67098L10.2613 6.67091Z" fill="#FFCF54"/>
</svg>
