<svg width="20" height="21" viewBox="0 0 20 21" fill="none" xmlns="http://www.w3.org/2000/svg">
<path fill-rule="evenodd" clip-rule="evenodd" d="M0.411035 13.4172C1.66074 17.5172 5.47625 20.5 9.98926 20.5C15.5179 20.5 20 16.0227 20 10.5C20 4.97716 15.5179 0.5 9.98926 0.5C4.68391 0.5 0.342856 4.62266 0 9.8356C0.00137329 9.8379 0.00274876 9.8401 0.00411769 9.8424L0.00414167 9.84198L5.38322 12.054C5.52955 11.9579 5.68552 11.8746 5.85196 11.8068C6.22953 11.6514 6.62773 11.5819 7.02455 11.5999L9.47422 8.04526C9.47336 8.02947 9.47336 8.01265 9.47336 7.99582C9.47336 5.89794 11.1791 4.19135 13.2757 4.19135C15.3732 4.19135 17.0781 5.89794 17.0781 7.99582C17.0781 10.0935 15.3732 11.8017 13.2757 11.8017C13.2477 11.8017 13.2188 11.8008 13.1907 11.7999H13.1898L9.68474 14.3021C9.69506 14.6883 9.62373 15.0755 9.47078 15.4446C8.88302 16.8566 7.25389 17.5287 5.84096 16.939C4.97737 16.5793 4.39203 15.8317 4.20109 14.9793L0.411035 13.4172ZM6.08466 16.3536C7.17561 16.8076 8.43069 16.2901 8.8856 15.1991C9.10558 14.672 9.10644 14.0883 8.88904 13.5596C8.67164 13.0308 8.26141 12.6171 7.73269 12.3973C7.20827 12.1793 6.64698 12.1862 6.15323 12.3733L7.4328 12.9029C8.23692 13.2377 8.6175 14.1613 8.28204 14.9656C7.9476 15.769 7.02455 16.1501 6.22 15.8154L4.98219 15.3029C5.20139 15.7604 5.58137 16.1441 6.08466 16.3536ZM10.7425 7.99582C10.7425 9.39391 11.8794 10.5313 13.2757 10.5313C14.6729 10.5313 15.8098 9.39391 15.8098 7.99582C15.8098 6.59881 14.6729 5.46112 13.2757 5.46112C11.8794 5.46112 10.7425 6.59881 10.7425 7.99582ZM13.28 6.08716C12.23 6.08716 11.3775 6.94017 11.3775 7.99195C11.3775 9.0438 12.23 9.89605 13.28 9.89605C14.3309 9.89605 15.1833 9.0438 15.1833 7.99195C15.1833 6.94017 14.3309 6.08716 13.28 6.08716Z" fill="white"/>
</svg>
