<svg width="25" height="25" viewBox="0 0 25 25" fill="none" xmlns="http://www.w3.org/2000/svg">
<path fill-rule="evenodd" clip-rule="evenodd" d="M24.4755 13.7676C24.3097 13.9339 24.1127 14.0658 23.8958 14.1558C23.6789 14.2458 23.4464 14.2921 23.2116 14.2921C22.9768 14.2921 22.7443 14.2458 22.5274 14.1558C22.3105 14.0658 22.1135 13.9339 21.9476 13.7676L12.5002 4.31666L3.05282 13.7676C2.7176 14.1029 2.26295 14.2912 1.78888 14.2912C1.31481 14.2912 0.860159 14.1029 0.52494 13.7676C0.189724 13.4324 0.00140179 12.9778 0.00140174 12.5037C0.0014017 12.0296 0.189724 11.575 0.52494 11.2398L11.2363 0.528408C11.4021 0.362156 11.5991 0.230255 11.816 0.140257C12.0329 0.0502579 12.2654 0.00393216 12.5002 0.00393214C12.735 0.00393212 12.9676 0.0502578 13.1844 0.140257C13.4013 0.230255 13.5983 0.362156 13.7642 0.528408L24.4755 11.2398C24.6418 11.4056 24.7737 11.6026 24.8637 11.8195C24.9537 12.0364 25 12.2689 25 12.5037C25 12.7385 24.9537 12.971 24.8637 13.1879C24.7737 13.4048 24.6418 13.6018 24.4755 13.7676Z" fill="white"/>
<path fill-rule="evenodd" clip-rule="evenodd" d="M12.4999 25C12.0265 25 11.5724 24.8119 11.2376 24.4771C10.9028 24.1423 10.7147 23.6882 10.7147 23.2148L10.7147 5.36252C10.7147 4.88905 10.9028 4.43497 11.2376 4.10018C11.5724 3.76538 12.0265 3.5773 12.4999 3.5773C12.9734 3.5773 13.4275 3.76538 13.7623 4.10018C14.0971 4.43497 14.2852 4.88905 14.2852 5.36252L14.2852 23.2148C14.2852 23.6882 14.0971 24.1423 13.7623 24.4771C13.4275 24.8119 12.9734 25 12.4999 25Z" fill="white"/>
</svg>
