<svg width="14" height="14" viewBox="0 0 14 14" fill="none" xmlns="http://www.w3.org/2000/svg">
<path d="M13.0001 2.99985C13.5523 2.44759 13.5523 1.55221 13.0001 0.99995C12.4478 0.447693 11.5524 0.447693 11.0002 0.99995L7 5.0001L2.99985 0.999949C2.44759 0.447692 1.55221 0.447693 0.99995 0.99995C0.447693 1.55221 0.447693 2.44759 0.99995 2.99985L5.0001 7L0.999949 11.0002C0.447692 11.5524 0.447693 12.4478 0.99995 13.0001C1.55221 13.5523 2.44759 13.5523 2.99985 13.0001L7 8.9999L11.0002 13.0001C11.5524 13.5523 12.4478 13.5523 13.0001 13.0001C13.5523 12.4478 13.5523 11.5524 13.0001 11.0002L8.9999 7L13.0001 2.99985Z" fill="#303D4F" stroke="white"/>
</svg>
