<svg width="18" height="12" viewBox="0 0 18 12" fill="none" xmlns="http://www.w3.org/2000/svg">
<g clip-path="url(#clip0)">
<path d="M0 0.000106812V12.0001H18V0.000106812H0Z" fill="#012169"/>
<path d="M0 0.000106812L18 12.0001L0 0.000106812ZM18 0.000106812L0 12.0001L18 0.000106812Z" fill="black"/>
<path fill-rule="evenodd" clip-rule="evenodd" d="M6.98757 6.00007L-0.402466 1.07338L0.402519 -1.07324L9.00003 4.65843L17.5975 -1.07324L18.4025 1.07338L11.0125 6.00007L18.4025 10.9268L17.5975 13.0734L9.00003 7.34171L0.402519 13.0734L-0.402466 10.9268L6.98757 6.00007Z" fill="white"/>
<path d="M0 0.000106812L18 12.0001L0 0.000106812ZM18 0.000106812L0 12.0001L18 0.000106812Z" fill="black"/>
<path fill-rule="evenodd" clip-rule="evenodd" d="M7.65838 6.00008L-0.268311 0.715622L0.268346 -0.715462L9.00002 5.10565L17.7317 -0.715462L18.2683 0.715622L10.3417 6.00008L18.2683 11.2845L17.7317 12.7156L9.00002 6.89451L0.268346 12.7156L-0.268311 11.2845L7.65838 6.00008Z" fill="#C8102E"/>
<path d="M9 0.000106812V12.0001V0.000106812ZM0 6.00011H18H0Z" fill="black"/>
<path fill-rule="evenodd" clip-rule="evenodd" d="M10.5 8.00011V12.0001H7.5V8.00011H0V4.00011H7.5V0.000106812H10.5V4.00011H18V8.00011H10.5Z" fill="white"/>
<path d="M9 0.000106812V12.0001V0.000106812ZM0 6.00011H18H0Z" fill="black"/>
<path fill-rule="evenodd" clip-rule="evenodd" d="M9.9 7.20011V12.0001H8.1V7.20011H0V4.80011H8.1V0.000106812H9.9V4.80011H18V7.20011H9.9Z" fill="#C8102E"/>
</g>
<defs>
<clipPath id="clip0">
<path d="M0 2C0 0.895431 0.895431 0 2 0H16C17.1046 0 18 0.895431 18 2V10C18 11.1046 17.1046 12 16 12H2C0.89543 12 0 11.1046 0 10V2Z" fill="white"/>
</clipPath>
</defs>
</svg>
